<svg xmlns="http://www.w3.org/2000/svg" viewBox="0 0 32 32" xmlns:xlink="http://www.w3.org/1999/xlink">
  <defs>
    <path id="a" d="M22.625 6H9.375C7.5 6 6 7.5 6 9.375v13.25C6 24.5 7.5 26 9.375 26h13.25C24.5 26 26 24.5 26 22.625V9.375C26 7.5 24.5 6 22.625 6zM13.5 22.25H11V13.5h2.5v8.75zm-1.25-10c-.6875 0-1.25-.5625-1.25-1.25s.5625-1.25 1.25-1.25 1.25.5625 1.25 1.25-.5625 1.25-1.25 1.25zm10 10h-2.5v-5c0-.6875-.5625-1.25-1.25-1.25s-1.25.5625-1.25 1.25v5h-2.5V13.5h2.5v1.5625c.5-.6875 1.3125-1.5625 2.1875-1.5625C21 13.5 22.25 14.875 22.25 16.625v5.625z"/>
  </defs>
  <g fill="none" fill-rule="evenodd">
    <mask id="b" fill="#fff">
      <use xlink:href="#a"/>
    </mask>
    <use fill="#FF2020" xlink:href="#a"/>
    <path fill="#FF2020" d="M0 0h32v32H0z" mask="url(#b)"/>
  </g>
</svg>
