<svg xmlns="http://www.w3.org/2000/svg" viewBox="0 0 32 32" xmlns:xlink="http://www.w3.org/1999/xlink">
  <defs>
    <path id="a" d="M15.6363593 6c-.8923802 0-1.6382138.60709056-1.8494308 1.43181737h-1.9687489v2.38636228h7.6363593V7.43181737h-1.9687488C17.2745731 6.60709057 16.5287395 6 15.6363593 6zM8 8.38636228V27h15.2727186V8.38636228h-3.3409072v1.43181737c-.0000264.26357935-.2136931.47724615-.4772725.47727245h-7.6363593c-.2635793-.0000263-.4772461-.2136931-.4772724-.47727245V8.38636228H8zm4.7727246 3.34089762c.5271713 0 .9545449.4273736.9545449.9545449 0 .5271952-.4273736.954545-.9545449.954545s-.954545-.4273498-.954545-.954545c0-.5271713.4273737-.9545449.954545-.9545449zm3.5795434 1.9090899h4.0568159c.2635975 0 .4772724.2136748.4772724.4772724s-.2136749.4772725-.4772724.4772725H16.352268c-.2635976 0-.4772725-.2136749-.4772725-.4772725s.2136749-.4772724.4772725-.4772724zm-3.5795434.2386362c.8811165 0 1.9090898.3340907 1.9090898 1.6704536h-3.8181797c0-1.3363629 1.0279733-1.6704536 1.9090899-1.6704536zm-1.9090899 3.1022686h9.5454492c.2635975 0 .4772724.2136748.4772724.4772963 0 .2635976-.2136749.4772724-.4772724.4772724h-9.5454492c-.2635975 0-.4772724-.2136748-.4772724-.4772724 0-.2636215.2136749-.4772963.4772724-.4772963zm0 3.340931h9.5454492c.2635975 0 .4772724.2136749.4772724.4772725 0 .2635975-.2136749.4772724-.4772724.4772724h-9.5454492c-.2635975 0-.4772724-.2136749-.4772724-.4772724 0-.2635976.2136749-.4772725.4772724-.4772725zm0 3.3409072h9.5454492c.2635975 0 .4772724.2136749.4772724.4772725 0 .2635975-.2136749.4772724-.4772724.4772724h-9.5454492c-.2635975 0-.4772724-.2136749-.4772724-.4772724 0-.2635976.2136749-.4772725.4772724-.4772725z"/>
  </defs>
  <g fill="none" fill-rule="evenodd">
    <mask id="b" fill="#fff">
      <use xlink:href="#a"/>
    </mask>
    <use fill="#FF2020" fill-rule="nonzero" xlink:href="#a"/>
    <path fill="#FF2020" d="M0 0h32v32H0z" mask="url(#b)"/>
  </g>
</svg>
