<svg xmlns="http://www.w3.org/2000/svg" viewBox="0 0 32 32" xmlns:xlink="http://www.w3.org/1999/xlink">
  <defs>
    <path id="a" d="M16 6C10.5 6 6 10.5 6 16c0 4.4375 2.875 8.1875 6.8125 9.5.5.06125.6875-.1875.6875-.5v-1.875c-2.8125.625-3.375-1.1875-3.375-1.1875C9.6875 20.8125 9 20.5 9 20.5c-.9375-.625.0625-.625.0625-.625 1 .0625 1.5625 1 1.5625 1 .875 1.5 2.3125 1.06375 2.9375.8125.0625-.625.375-1.0625.625-1.3125-2.25-.25-4.5625-1.125-4.5625-4.9375 0-1.0625.375-2 1-2.6875-.125-.25-.4375-1.25.125-2.625 0 0 .8125-.25 2.75 1 .8125-.25 1.625-.3125 2.5-.3125s1.6875.125 2.5.3125c1.9375-1.25 2.75-1 2.75-1 .5625 1.375.18625 2.375.125 2.625.625.6875 1 1.5625 1 2.6875 0 3.8125-2.3125 4.6875-4.56125 4.9375.37375.3125.68625.9375.68625 1.875V25c0 .24875.1875.56125.6875.49875C23.125 24.1875 26 20.4375 26 16c0-5.5-4.5-10-10-10z"/>
  </defs>
  <g fill="none" fill-rule="evenodd">
    <mask id="b" fill="#fff">
      <use xlink:href="#a"/>
    </mask>
    <use fill="#FF2020" xlink:href="#a"/>
    <path fill="#FF2020" d="M0 0h32v32H0z" mask="url(#b)"/>
  </g>
</svg>
