<svg xmlns="http://www.w3.org/2000/svg" viewBox="0 0 32 32" xmlns:xlink="http://www.w3.org/1999/xlink">
  <defs>
    <path id="a" d="M7.58379374 22.744424h7.84939636v-5.5248619c.0022529-1.3235546 1.0746447-2.3959464 2.3981993-2.3981993h5.9709433v-3.6382239c0-.8747051-.7090886-1.5837937-1.5837937-1.5837937h-3.3026397V8.44117045C18.914771 7.09341687 17.8224825 6.0011283 16.4747289 6h-3.1491713c-1.3477536.0011283-2.4400422 1.09341687-2.4411705 2.44117045v1.1561285H7.58379374C6.7090886 9.59729895 6 10.3063876 6 11.1810927v9.9795375c0 .8747052.7090886 1.5837938 1.58379374 1.5837938zM12.944956 8.44117045c0-.21020046.1704011-.3806016.3806016-.3806016h3.1491713c.2102004 0 .3806016.17040114.3806016.3806016v1.1561285H12.944956v-1.1561285zM26 17.2216083v7.4769798c0 .1812611-.0720057.3550982-.2001767.4832692-.1281709.128171-.3020081.2001767-.4832692.2001767h-7.4851647c-.1812611 0-.3550982-.0720057-.4832692-.2001767-.128171-.128171-.2001767-.3020081-.2001767-.4832692v-7.4769798c0-.3774567.3059892-.6834458.6834459-.6834458h2.9036219v2.7010436h1.753632v-2.7010436h2.8299571c.3766573.0011277.6814013.3067868.6813996.6834458z"/>
  </defs>
  <g fill="none" fill-rule="evenodd">
    <mask id="b" fill="#fff">
      <use xlink:href="#a"/>
    </mask>
    <use fill="#FF2020" fill-rule="nonzero" xlink:href="#a"/>
    <path fill="#FF2020" d="M0 0h32v32H0z" mask="url(#b)"/>
  </g>
</svg>
