<?xml version="1.0" encoding="UTF-8" standalone="no"?>
<svg width="32px" height="32px" viewBox="0 0 32 32" version="1.1" xmlns="http://www.w3.org/2000/svg" xmlns:xlink="http://www.w3.org/1999/xlink">
    <!-- Generator: Sketch 43.2 (39069) - http://www.bohemiancoding.com/sketch -->
    <title>Icon / LinkedIn</title>
    <desc>Created with Sketch.</desc>
    <defs>
        <path d="M22.625,6 L9.375,6 C7.5,6 6,7.5 6,9.375 L6,22.625 C6,24.5 7.5,26 9.375,26 L22.625,26 C24.5,26 26,24.5 26,22.625 L26,9.375 C26,7.5 24.5,6 22.625,6 Z M13.5,22.25 L11,22.25 L11,13.5 L13.5,13.5 L13.5,22.25 Z M12.25,12.25 C11.5625,12.25 11,11.6875 11,11 C11,10.3125 11.5625,9.75 12.25,9.75 C12.9375,9.75 13.5,10.3125 13.5,11 C13.5,11.6875 12.9375,12.25 12.25,12.25 Z M22.25,22.25 L19.75,22.25 L19.75,17.25 C19.75,16.5625 19.1875,16 18.5,16 C17.8125,16 17.25,16.5625 17.25,17.25 L17.25,22.25 L14.75,22.25 L14.75,13.5 L17.25,13.5 L17.25,15.0625 C17.75,14.375 18.5625,13.5 19.4375,13.5 C21,13.5 22.25,14.875 22.25,16.625 L22.25,22.25 Z" id="path-1"></path>
    </defs>
    <g id="Symbols" stroke="none" stroke-width="1" fill="none" fill-rule="evenodd">
        <g id="Icon-/-LinkedIn">
            <mask id="mask-2" fill="white">
                <use xlink:href="#path-1"></use>
            </mask>
            <use id="Mask" fill="#FF2020" xlink:href="#path-1"></use>
            <g id="Swatches-/-Highlight" mask="url(#mask-2)" fill="#FF2020">
                <rect id="background" x="0" y="0" width="32" height="32"></rect>
            </g>
        </g>
    </g>
</svg>