<?xml version="1.0" encoding="UTF-8" standalone="no"?>
<svg width="32px" height="32px" viewBox="0 0 32 32" version="1.1" xmlns="http://www.w3.org/2000/svg" xmlns:xlink="http://www.w3.org/1999/xlink">
    <!-- Generator: Sketch 43.2 (39069) - http://www.bohemiancoding.com/sketch -->
    <title>Icon / Resume</title>
    <desc>Created with Sketch.</desc>
    <defs>
        <path d="M15.6363593,6 C14.7439791,6 13.9981455,6.60709056 13.7869285,7.43181737 L11.8181796,7.43181737 L11.8181796,9.81817965 L19.4545389,9.81817965 L19.4545389,7.43181737 L17.4857901,7.43181737 C17.2745731,6.60709056 16.5287395,6 15.6363593,6 Z M8,8.38636228 L8,27 L23.2727186,27 L23.2727186,8.38636228 L19.9318114,8.38636228 L19.9318114,9.81817965 C19.931785,10.081759 19.7181183,10.2954258 19.4545389,10.2954521 L11.8181796,10.2954521 C11.5546003,10.2954258 11.3409335,10.081759 11.3409072,9.81817965 L11.3409072,8.38636228 L8,8.38636228 L8,8.38636228 Z M12.7727246,11.7272599 C13.2998959,11.7272599 13.7272695,12.1546335 13.7272695,12.6818048 C13.7272695,13.209 13.2998959,13.6363498 12.7727246,13.6363498 C12.2455533,13.6363498 11.8181796,13.209 11.8181796,12.6818048 C11.8181796,12.1546335 12.2455533,11.7272599 12.7727246,11.7272599 Z M16.352268,13.6363498 L20.4090839,13.6363498 C20.6726814,13.6363498 20.8863563,13.8500246 20.8863563,14.1136222 C20.8863563,14.3772198 20.6726814,14.5908947 20.4090839,14.5908947 L16.352268,14.5908947 C16.0886704,14.5908947 15.8749955,14.3772198 15.8749955,14.1136222 C15.8749955,13.8500246 16.0886704,13.6363498 16.352268,13.6363498 Z M12.7727246,13.874986 C13.6538411,13.874986 14.6818144,14.2090767 14.6818144,15.5454396 L10.8636347,15.5454396 C10.8636347,14.2090767 11.891608,13.874986 12.7727246,13.874986 Z M10.8636347,16.9772546 L20.4090839,16.9772546 C20.6726814,16.9772546 20.8863563,17.1909294 20.8863563,17.4545509 C20.8863563,17.7181485 20.6726814,17.9318233 20.4090839,17.9318233 L10.8636347,17.9318233 C10.6000372,17.9318233 10.3863623,17.7181485 10.3863623,17.4545509 C10.3863623,17.1909294 10.6000372,16.9772546 10.8636347,16.9772546 Z M10.8636347,20.3181856 L20.4090839,20.3181856 C20.6726814,20.3181856 20.8863563,20.5318605 20.8863563,20.7954581 C20.8863563,21.0590556 20.6726814,21.2727305 20.4090839,21.2727305 L10.8636347,21.2727305 C10.6000372,21.2727305 10.3863623,21.0590556 10.3863623,20.7954581 C10.3863623,20.5318605 10.6000372,20.3181856 10.8636347,20.3181856 Z M10.8636347,23.6590928 L20.4090839,23.6590928 C20.6726814,23.6590928 20.8863563,23.8727677 20.8863563,24.1363653 C20.8863563,24.3999628 20.6726814,24.6136377 20.4090839,24.6136377 L10.8636347,24.6136377 C10.6000372,24.6136377 10.3863623,24.3999628 10.3863623,24.1363653 C10.3863623,23.8727677 10.6000372,23.6590928 10.8636347,23.6590928 Z" id="path-1"></path>
    </defs>
    <g id="Symbols" stroke="none" stroke-width="1" fill="none" fill-rule="evenodd">
        <g id="Icon-/-Resume">
            <mask id="mask-2" fill="white">
                <use xlink:href="#path-1"></use>
            </mask>
            <use id="Mask" fill="#FF2020" fill-rule="nonzero" xlink:href="#path-1"></use>
            <g id="Swatches-/-Highlight" mask="url(#mask-2)" fill="#FF2020">
                <rect id="background" x="0" y="0" width="32" height="32"></rect>
            </g>
        </g>
    </g>
</svg>