<?xml version="1.0" encoding="UTF-8" standalone="no"?>
<svg width="32px" height="32px" viewBox="0 0 32 32" version="1.1" xmlns="http://www.w3.org/2000/svg" xmlns:xlink="http://www.w3.org/1999/xlink">
    <!-- Generator: Sketch 43.2 (39069) - http://www.bohemiancoding.com/sketch -->
    <title>Icon / Github</title>
    <desc>Created with Sketch.</desc>
    <defs>
        <path d="M16,6 C10.5,6 6,10.5 6,16 C6,20.4375 8.875,24.1875 12.8125,25.5 C13.3125,25.56125 13.5,25.3125 13.5,25 L13.5,23.125 C10.6875,23.75 10.125,21.9375 10.125,21.9375 C9.6875,20.8125 9,20.5 9,20.5 C8.0625,19.875 9.0625,19.875 9.0625,19.875 C10.0625,19.9375 10.625,20.875 10.625,20.875 C11.5,22.375 12.9375,21.93875 13.5625,21.6875 C13.625,21.0625 13.9375,20.625 14.1875,20.375 C11.9375,20.125 9.625,19.25 9.625,15.4375 C9.625,14.375 10,13.4375 10.625,12.75 C10.5,12.5 10.1875,11.5 10.75,10.125 C10.75,10.125 11.5625,9.875 13.5,11.125 C14.3125,10.875 15.125,10.8125 16,10.8125 C16.875,10.8125 17.6875,10.9375 18.5,11.125 C20.4375,9.875 21.25,10.125 21.25,10.125 C21.8125,11.5 21.43625,12.5 21.375,12.75 C22,13.4375 22.375,14.3125 22.375,15.4375 C22.375,19.25 20.0625,20.125 17.81375,20.375 C18.1875,20.6875 18.5,21.3125 18.5,22.25 L18.5,25 C18.5,25.24875 18.6875,25.56125 19.1875,25.49875 C23.125,24.1875 26,20.4375 26,16 C26,10.5 21.5,6 16,6 Z" id="path-1"></path>
    </defs>
    <g id="Symbols" stroke="none" stroke-width="1" fill="none" fill-rule="evenodd">
        <g id="Icon-/-Github">
            <mask id="mask-2" fill="white">
                <use xlink:href="#path-1"></use>
            </mask>
            <use id="Mask" fill="#FF2020" xlink:href="#path-1"></use>
            <g id="Swatches-/-Highlight" mask="url(#mask-2)" fill="#FF2020">
                <rect id="background" x="0" y="0" width="32" height="32"></rect>
            </g>
        </g>
    </g>
</svg>