<?xml version="1.0" encoding="UTF-8" standalone="no"?>
<svg width="32px" height="32px" viewBox="0 0 32 32" version="1.1" xmlns="http://www.w3.org/2000/svg" xmlns:xlink="http://www.w3.org/1999/xlink">
    <!-- Generator: Sketch 43.2 (39069) - http://www.bohemiancoding.com/sketch -->
    <title>Icon / Portfolio</title>
    <desc>Created with Sketch.</desc>
    <defs>
        <path d="M7.58379374,22.744424 L15.4331901,22.744424 L15.4331901,17.2195621 C15.435443,15.8960075 16.5078348,14.8236157 17.8313894,14.8213628 L23.8023327,14.8213628 L23.8023327,11.1831389 C23.8023327,10.3084338 23.0932441,9.5993452 22.218539,9.5993452 L18.9158993,9.5993452 L18.9158993,8.44117045 C18.914771,7.09341687 17.8224825,6.0011283 16.4747289,6 L13.3255576,6 C11.977804,6.0011283 10.8855154,7.09341687 10.8843871,8.44117045 L10.8843871,9.59729896 L7.58379374,9.59729896 C6.70908861,9.59729896 6,10.3063876 6,11.1810927 L6,21.1606302 C6,22.0353354 6.70908861,22.744424 7.58379374,22.744424 L7.58379374,22.744424 Z M12.944956,8.44117045 C12.944956,8.23096999 13.1153571,8.06056886 13.3255576,8.06056886 L16.4747289,8.06056886 C16.6849293,8.06056886 16.8553305,8.23096999 16.8553305,8.44117045 L16.8553305,9.59729896 L12.944956,9.59729896 L12.944956,8.44117045 Z M26,17.2216083 L26,24.6985881 C26,24.8798492 25.9279943,25.0536863 25.7998233,25.1818573 C25.6716524,25.3100283 25.4978152,25.382034 25.3165541,25.382034 L17.8313894,25.382034 C17.6501283,25.382034 17.4762912,25.3100283 17.3481202,25.1818573 C17.2199492,25.0536863 17.1479435,24.8798492 17.1479435,24.6985881 L17.1479435,17.2216083 C17.1479435,16.8441516 17.4539327,16.5381625 17.8313894,16.5381625 L20.7350113,16.5381625 L20.7350113,19.2392061 L22.4886433,19.2392061 L22.4886433,16.5381625 L25.3186004,16.5381625 C25.6952577,16.5392902 26.0000017,16.8449493 26,17.2216083 L26,17.2216083 Z" id="path-1"></path>
    </defs>
    <g id="Symbols" stroke="none" stroke-width="1" fill="none" fill-rule="evenodd">
        <g id="Icon-/-Portfolio">
            <mask id="mask-2" fill="white">
                <use xlink:href="#path-1"></use>
            </mask>
            <use id="Mask" fill="#FF2020" fill-rule="nonzero" xlink:href="#path-1"></use>
            <g id="Swatches-/-Highlight" mask="url(#mask-2)" fill="#FF2020">
                <rect id="background" x="0" y="0" width="32" height="32"></rect>
            </g>
        </g>
    </g>
</svg>